<?xml version="1.0" encoding="UTF-8"?> <svg xmlns="http://www.w3.org/2000/svg" viewBox="0 0 45 45"><defs><style>.cls-1{fill:#8f67ca;}.cls-2{fill:#fff;}</style></defs><title>ico-circle-chat</title><g id="Layer_2" data-name="Layer 2"><g id="Layer_2-2" data-name="Layer 2"><rect class="cls-1" width="45" height="45" rx="22.5"></rect><path class="cls-2" d="M28.5,15.8a6.24,6.24,0,0,1,2.73,5.11,6.33,6.33,0,0,1-2.1,4.58,8.83,8.83,0,0,1-6.4,2.42,10.23,10.23,0,0,1-2.83-.39l-4.55,2.12s-.07,0-.16,0a.43.43,0,0,1-.27-.1.35.35,0,0,1,0-.39l1.69-3.42a6.12,6.12,0,0,1-.26-9.43,8.86,8.86,0,0,1,6.41-2.43A9.12,9.12,0,0,1,28.5,15.8Zm-9,5.87a1,1,0,0,0,.74-1,2.63,2.63,0,0,0,0-.33,1,1,0,0,0-1-.73,1,1,0,0,0-.36.07,1,1,0,0,0-.7,1,1,1,0,0,0,.07.37,1,1,0,0,0,1,.7A2.43,2.43,0,0,0,19.5,21.67Zm3.56,0a1,1,0,0,0,.73-1,1.53,1.53,0,0,0,0-.33,1,1,0,0,0-1-.73l-.34,0a1,1,0,0,0-.73,1,1.61,1.61,0,0,0,0,.34,1,1,0,0,0,1,.73Zm3.58,0a1,1,0,0,0,.63-1.36,1,1,0,0,0-1-.7l-.33,0a1,1,0,0,0-.73,1,2.47,2.47,0,0,0,0,.34,1,1,0,0,0,1,.73A1.27,1.27,0,0,0,26.64,21.64Z"></path></g></g></svg> 